<svg width="512" height="512" viewBox="0 0 512 512" fill="none" xmlns="http://www.w3.org/2000/svg">
    <rect x="66.5" y="66.5" width="380" height="380" rx="42.5" fill="white"/>
    <rect x="66.5" y="66.5" width="380" height="380" rx="42.5" stroke="url(#paint0_linear_16_2)" stroke-width="15"/>
    <path d="M302.614 106C302.683 106.379 302.866 106.747 303.183 107.055L369 171.09V390C369 398.837 361.837 406 353 406H160C151.163 406 144 398.837 144 390V122C144 113.163 151.163 106 160 106H302.614ZM367.422 115.063C367.534 115.297 367.641 115.533 367.742 115.772C367.641 115.533 367.534 115.297 367.422 115.063ZM366.048 112.738H366.049H366.048ZM363.758 110.156C363.947 110.329 364.133 110.505 364.314 110.687C364.133 110.505 363.947 110.329 363.758 110.156ZM362.262 108.952H362.263H362.262ZM360.964 108.12H360.965H360.964ZM359.937 107.578H359.938H359.937ZM353.823 106.021C355.05 106.083 356.241 106.284 357.38 106.607C356.874 106.464 356.357 106.344 355.832 106.25C355.701 106.227 355.569 106.205 355.437 106.185C354.907 106.104 354.369 106.048 353.823 106.021Z" fill="#1167B4"/>
    <path d="M185.789 304.636V341H177V304.636H185.789ZM191.307 304.636H202.191L211.424 327.151H211.85L221.083 304.636H231.967V341H223.409V318.663H223.107L214.371 340.769H208.903L200.167 318.539H199.865V341H191.307V304.636ZM245.315 341H235.869L248.138 304.636H259.839L272.108 341H262.662L254.122 313.798H253.838L245.315 341ZM244.055 326.689H263.799V333.365H244.055V326.689ZM298.178 316.515C297.977 315.769 297.681 315.112 297.29 314.544C296.9 313.964 296.42 313.473 295.852 313.07C295.284 312.668 294.633 312.366 293.899 312.165C293.165 311.952 292.36 311.845 291.484 311.845C289.721 311.845 288.194 312.271 286.903 313.124C285.625 313.976 284.637 315.219 283.938 316.852C283.24 318.474 282.891 320.445 282.891 322.765C282.891 325.097 283.228 327.085 283.903 328.731C284.577 330.376 285.554 331.631 286.832 332.495C288.111 333.359 289.661 333.791 291.484 333.791C293.094 333.791 294.455 333.531 295.568 333.01C296.693 332.477 297.545 331.726 298.125 330.755C298.705 329.784 298.995 328.642 298.995 327.328L300.629 327.523H291.786V321.114H307.464V325.925C307.464 329.181 306.772 331.968 305.387 334.288C304.014 336.608 302.12 338.39 299.705 339.633C297.302 340.876 294.538 341.497 291.413 341.497C287.945 341.497 284.897 340.746 282.269 339.242C279.641 337.739 277.594 335.596 276.126 332.815C274.658 330.021 273.924 326.707 273.924 322.871C273.924 319.888 274.368 317.243 275.256 314.935C276.143 312.615 277.38 310.65 278.967 309.04C280.565 307.43 282.411 306.211 284.506 305.382C286.613 304.554 288.88 304.139 291.307 304.139C293.414 304.139 295.373 304.441 297.184 305.045C299.007 305.648 300.617 306.501 302.013 307.602C303.422 308.702 304.564 310.01 305.44 311.526C306.316 313.041 306.861 314.704 307.074 316.515H298.178ZM312.645 341V304.636H338V311.774H321.434V319.232H336.704V326.387H321.434V333.862H338V341H312.645ZM186.668 390V353.636H211.491V360.774H195.457V368.232H209.91V375.387H195.457V390H186.668ZM215.916 390V353.636H224.705V382.862H239.833V390H215.916ZM277.289 371.818C277.289 375.819 276.519 379.21 274.98 381.992C273.442 384.774 271.358 386.887 268.73 388.331C266.114 389.775 263.179 390.497 259.924 390.497C256.657 390.497 253.715 389.769 251.099 388.313C248.483 386.857 246.406 384.744 244.867 381.974C243.34 379.193 242.576 375.807 242.576 371.818C242.576 367.817 243.34 364.426 244.867 361.644C246.406 358.862 248.483 356.75 251.099 355.305C253.715 353.861 256.657 353.139 259.924 353.139C263.179 353.139 266.114 353.861 268.73 355.305C271.358 356.75 273.442 358.862 274.98 361.644C276.519 364.426 277.289 367.817 277.289 371.818ZM268.304 371.818C268.304 369.451 267.967 367.45 267.292 365.817C266.629 364.183 265.671 362.946 264.416 362.106C263.173 361.265 261.676 360.845 259.924 360.845C258.184 360.845 256.686 361.265 255.431 362.106C254.177 362.946 253.212 364.183 252.537 365.817C251.874 367.45 251.543 369.451 251.543 371.818C251.543 374.186 251.874 376.186 252.537 377.82C253.212 379.453 254.177 380.69 255.431 381.531C256.686 382.371 258.184 382.791 259.924 382.791C261.676 382.791 263.173 382.371 264.416 381.531C265.671 380.69 266.629 379.453 267.292 377.82C267.967 376.186 268.304 374.186 268.304 371.818ZM289.331 390L278.749 353.636H288.461L293.948 377.464H294.25L300.518 353.636H308.437L314.704 377.518H315.006L320.51 353.636H330.205L319.64 390H311.171L304.619 367.947H304.335L297.783 390H289.331Z" fill="white"/>
    <path d="M355.127 171H303V123.346L355.127 171Z" fill="#94D0FC"/>
    <path d="M264.53 187.024C263.397 189.844 262.264 192.312 262.102 192.488C261.94 192.664 260.402 192.224 258.783 191.431C249.799 187.288 240.652 186.407 230.939 188.698C224.22 190.373 220.578 192.136 213.94 197.071C206.089 202.8 201.961 208.793 189.738 232.149C182.939 245.105 172.497 253.478 160.598 255.594C157.765 256.122 155.742 256.827 156.146 257.092C157.603 257.973 166.912 255.329 172.416 252.509C179.296 248.895 185.772 241.844 190.871 232.149C200.261 214.346 202.527 210.556 206.898 205.356C216.369 194.163 226.811 189.051 240.49 189.051C248.261 189.051 253.684 190.197 259.431 192.841L262.264 194.251L264.935 188.434C266.311 185.261 267.606 182.793 267.768 182.97C267.93 183.146 270.035 187.112 272.463 191.695C274.891 196.278 278.777 203.505 281.043 207.736C285.819 216.637 286.466 215.756 273.353 217.343C268.335 217.871 264.207 218.753 264.207 219.105C264.207 219.546 265.016 219.722 266.068 219.458C268.011 219.017 271.249 218.576 279.829 217.607C282.824 217.254 285.495 216.637 285.738 216.197C286.143 215.492 281.691 205.973 278.696 201.302C277.158 198.922 272.382 189.756 270.116 184.82C269.387 183.322 268.254 182 267.687 182C267.04 182 265.583 184.292 264.53 187.024Z" fill="#D5FFEE"/>
    <path d="M326.938 199.01C321.515 200.508 316.173 201.919 306.055 204.386C303.384 205.092 300.955 205.973 300.551 206.414C300.146 206.854 301.441 208.97 303.788 211.437L307.836 215.756L300.146 224.658C295.937 229.505 291.242 235.498 289.704 237.966C288.166 240.346 285.252 244.929 283.229 248.102C281.205 251.275 278.291 255.858 276.753 258.326C272.058 265.905 262.021 273.661 255.465 274.983C254.089 275.248 252.146 275.777 251.094 276.305C249.637 277.01 250.041 277.099 252.875 276.658C262.75 275.248 272.544 267.051 281.61 252.509C290.513 238.319 301.846 222.895 307.026 217.783L308.807 216.02L304.679 211.525L300.551 206.942L310.102 204.475C315.363 203.153 323.134 201.214 327.343 200.068C331.552 199.01 335.114 198.129 335.195 198.217C335.276 198.305 333.738 205.885 331.795 215.051C329.771 224.305 328.152 232.502 328.152 233.295C328.152 235.851 326.372 235.146 322.486 230.915L318.763 226.861L313.34 232.854C307.35 239.553 300.712 248.719 291.89 262.556C282.338 277.363 276.025 283.533 265.259 288.468C259.593 291.112 256.112 291.729 247.613 291.729C228.348 291.641 212.16 277.539 206.332 255.77C204.956 250.482 203.984 249.071 204.713 253.214C206.17 262.204 211.512 272.516 218.473 279.743C234.015 295.783 255.222 297.634 273.92 284.678C280.315 280.183 287.357 272.075 293.751 261.587C302.088 248.014 315.525 230.034 318.196 228.976C318.763 228.712 321.11 230.387 323.377 232.678C327.748 237.173 328.395 237.085 329.286 232.149C329.771 229.417 333.495 211.349 335.114 204.21C336.894 196.278 336.814 196.19 326.938 199.01Z" fill="#D5FFEE"/>
    <path d="M233.043 204.915C222.52 207.736 215.155 215.492 206.574 232.854C204.308 237.437 200.585 244.136 198.156 247.749C195.809 251.363 194.19 254.271 194.676 254.271C195.728 254.271 203.903 240.61 209.327 229.858C217.259 214.081 226.082 206.59 238.628 205.003C244.294 204.298 244.294 204.298 239.923 204.21C237.495 204.21 234.419 204.475 233.043 204.915Z" fill="#838383"/>
    <path d="M244.78 204.386C244.78 204.563 246.804 205.444 249.232 206.325C251.741 207.119 253.927 208.088 254.089 208.529C254.331 208.881 253.441 211.702 252.146 214.787L249.718 220.339L253.522 220.603C255.627 220.692 258.783 220.427 260.564 219.987C263.235 219.281 262.669 219.193 257.569 219.634C254.089 219.898 251.256 219.81 251.256 219.546C251.256 219.193 252.389 216.549 253.684 213.641L256.193 208.353L252.713 206.766C248.989 205.003 244.78 203.77 244.78 204.386Z" fill="#838383"/>
    <path d="M222.035 219.634C219.445 222.454 215.802 228.359 211.269 236.821C207.546 244.048 204.713 249.865 205.037 249.865C205.36 249.865 207.951 245.37 210.784 239.905C216.531 228.8 222.116 219.546 222.601 220.163C222.844 220.339 222.035 222.543 220.902 225.01C218.878 229.505 217.097 238.495 218.797 235.763C219.283 235.058 219.687 233.559 219.687 232.414C219.687 230.475 223.33 220.78 224.382 219.898C225.273 219.193 227.053 215.492 226.487 215.492C226.244 215.492 224.22 217.342 222.035 219.634Z" fill="#D5FFEE"/>
    <path d="M282.743 222.895C282.5 223.159 279.667 223.6 276.348 223.953C270.844 224.393 267.606 225.187 270.925 225.187C271.815 225.187 272.139 225.715 271.815 226.685C271.492 227.654 271.573 227.919 272.058 227.302C272.382 226.773 273.677 226.068 274.891 225.804C276.51 225.363 277.158 225.539 277.401 226.685C277.724 227.919 277.805 227.743 277.886 226.244C277.967 224.834 278.453 224.305 279.91 224.305C282.338 224.305 283.957 226.332 283.229 228.624C282.986 229.682 282.743 231.973 282.662 233.824C282.662 236.38 281.933 238.054 279.91 240.698C278.372 242.549 277.158 244.4 277.158 244.841C277.158 245.193 276.834 245.282 276.348 245.017C275.863 244.665 275.782 245.105 276.105 245.987C276.429 247.044 276.348 247.309 275.701 246.868C275.053 246.427 274.891 246.692 275.215 247.661C275.62 248.631 275.377 248.895 274.406 248.454C273.434 248.014 273.191 248.278 273.596 249.336C273.92 250.129 273.191 251.539 271.734 253.038C270.52 254.36 269.954 255.153 270.52 254.8C271.006 254.448 271.492 254.36 271.492 254.624C271.492 254.888 270.682 255.505 269.711 256.122C268.254 257.004 268.092 256.916 268.578 255.505C269.063 253.919 268.982 253.919 267.849 255.505C267.04 256.651 266.959 257.532 267.444 258.238C268.011 259.031 267.93 259.648 267.04 260.441C266.392 261.058 265.826 261.234 265.826 260.97C265.826 260.617 265.097 260.793 264.207 261.322C262.264 262.468 260.159 261.499 261.859 260.353C262.669 259.824 262.669 259.56 262.021 259.56C260.726 259.56 259.917 261.058 260.969 261.763C261.455 262.116 261.536 262.732 261.293 263.261C260.969 263.878 261.131 263.966 261.616 263.614C262.183 263.261 262.588 263.173 262.588 263.438C262.588 263.702 261.131 264.76 259.35 265.729C254.574 268.373 255.303 268.99 260.483 266.699C263.478 265.377 273.272 254.8 275.134 250.834C275.863 249.16 277.239 247.044 278.048 246.075C278.858 245.105 279.748 243.519 280.072 242.637C280.315 241.58 281.043 241.139 281.691 241.404C282.338 241.668 282.743 241.58 282.5 241.139C282.257 240.698 282.5 239.288 283.148 237.966C283.795 236.644 284.281 233.736 284.281 231.356C284.362 226.861 283.471 222.102 282.743 222.895ZM269.873 257.444C269.873 258.149 268.335 258.59 267.93 257.973C267.687 257.532 268.011 257.18 268.659 257.18C269.306 257.18 269.873 257.356 269.873 257.444Z" fill="#838383"/>
    <path d="M268.659 225.892C268.982 226.597 269.225 229.77 269.225 233.119C269.225 238.054 268.82 239.993 266.959 243.783C259.188 259.207 239.519 260.088 230.858 245.37C228.834 241.932 226.73 233.295 227.296 230.827C227.62 229.681 227.539 228.712 227.134 228.712C226.082 228.712 224.544 236.115 225.434 237.085C226.001 237.702 226.082 237.437 225.758 236.38C225.434 235.498 225.596 234.882 226.082 234.882C226.568 234.882 226.972 236.027 226.972 237.437C226.972 238.936 227.377 240.346 227.782 240.61C228.996 241.404 228.753 242.99 227.62 242.373C227.053 242.021 227.296 242.461 228.106 243.166C228.996 243.96 229.401 244.576 228.996 244.576C228.591 244.576 229.158 245.546 230.21 246.78C231.262 248.014 231.829 249.071 231.586 249.071C231.262 249.16 230.372 249.248 229.644 249.424C228.834 249.512 227.539 249.865 226.73 250.217C225.434 250.922 225.434 251.187 227.134 254.36C228.834 257.709 230.21 258.766 230.21 256.739C230.21 256.21 230.453 256.034 230.696 256.299C231.02 256.651 230.858 257.444 230.291 258.061C229.644 259.031 230.048 260 232.558 262.468C236.524 266.434 240.976 268.902 245.751 269.607C250.608 270.4 255.546 269.431 254.979 267.844C254.736 267.227 254.979 266.522 255.546 266.346C256.112 266.17 255.546 265.994 254.251 266.082C252.308 266.17 252.227 266.258 253.441 267.227C254.736 268.285 254.655 268.373 253.198 268.461C252.389 268.549 250.608 268.726 249.232 268.902C247.937 269.078 245.832 268.461 244.375 267.58C243.08 266.61 240.895 265.905 239.681 265.905C238.466 265.905 237.009 265.288 236.443 264.495C235.876 263.702 234.5 262.556 233.448 261.939C231.991 261.146 231.424 260.088 231.424 258.238C231.424 256.475 231.02 255.682 230.291 255.858C229.725 255.946 228.753 255.417 228.187 254.536C227.053 252.861 227.053 250.658 228.268 250.834C228.672 250.834 228.915 251.363 228.753 251.892C228.591 252.509 228.915 252.421 229.644 251.804C230.291 251.187 231.101 251.099 231.424 251.451C231.829 251.804 231.829 251.539 231.505 250.922C231.182 250.305 231.424 249.865 232.153 249.865C232.962 249.865 233.205 250.393 232.881 251.187C232.639 251.98 232.719 252.509 233.124 252.332C234.581 251.98 237.495 253.566 237.009 254.448C236.686 254.977 236.848 255.153 237.333 254.8C237.819 254.536 238.386 254.624 238.709 255.065C238.952 255.593 239.681 255.77 240.409 255.417C241.138 255.153 241.542 255.417 241.38 256.122C241.219 257.004 242.595 257.268 246.966 257.268C250.203 257.356 252.875 257.004 252.875 256.563C252.875 256.21 253.36 256.034 254.008 256.299C254.655 256.563 255.384 256.563 255.708 256.21C256.031 255.858 257.084 255.593 257.974 255.593C259.026 255.593 259.674 255.153 259.512 254.448C259.431 253.743 260.079 253.038 260.969 252.773C261.859 252.509 262.588 251.892 262.588 251.451C262.588 251.01 262.993 250.922 263.397 251.187C263.883 251.451 264.207 251.275 264.207 250.746C264.207 250.217 264.611 250.041 265.178 250.393C265.745 250.746 265.826 250.658 265.502 250.041C265.178 249.512 265.664 248.278 266.635 247.221C267.525 246.251 268.254 244.841 268.254 244.048C268.254 243.343 268.578 242.902 268.982 243.166C269.387 243.519 269.549 242.99 269.306 242.109C269.144 241.139 269.468 239.817 270.116 239.112C271.006 238.231 271.087 237.437 270.52 236.292C270.116 235.498 269.954 233.295 270.197 231.444C270.439 229.153 270.197 227.566 269.387 226.42C268.659 225.451 268.416 225.275 268.659 225.892ZM242.676 267.404C242.999 267.844 242.433 268.021 241.542 267.756C239.681 267.227 239.438 266.61 241.057 266.61C241.704 266.61 242.433 266.963 242.676 267.404Z" fill="#D5FFEE"/>
    <path d="M218.23 240.17C218.23 241.844 218.392 242.549 218.635 241.668C218.797 240.875 218.797 239.465 218.635 238.583C218.392 237.79 218.23 238.495 218.23 240.17Z" fill="#D5FFEE"/>
    <path d="M224.544 241.051C224.544 242.461 224.787 243.695 225.192 243.695C225.515 243.695 225.758 242.461 225.758 241.051C225.758 239.553 225.515 238.407 225.192 238.407C224.787 238.407 224.544 239.553 224.544 241.051Z" fill="#838383"/>
    <path d="M218.392 246.956C219.283 256.827 227.539 269.166 236.2 273.573C241.299 276.217 248.018 277.892 248.018 276.57C248.018 276.129 246.885 275.688 245.59 275.6C241.947 275.336 235.876 272.604 231.505 269.255C226.972 265.905 221.954 257.973 220.578 251.892C218.716 244.4 217.988 242.726 218.392 246.956Z" fill="#D5FFEE"/>
    <path d="M225.03 245.37C224.706 245.81 224.868 247.132 225.273 248.278C225.758 249.336 226.082 250.129 226.163 249.865C226.81 247.573 226.649 246.339 225.92 246.339C225.353 246.339 225.515 245.899 226.163 245.458C226.891 244.929 226.972 244.577 226.406 244.577C225.92 244.577 225.273 244.929 225.03 245.37Z" fill="#838383"/>
    <path d="M330.5 252.949C330.257 253.126 329.367 253.478 328.476 253.654C327.667 253.831 325.319 254.448 323.296 255.065C319.734 256.21 317.792 256.739 316.658 256.827C316.254 256.916 316.011 257.268 316.011 257.621C316.011 257.973 317.225 258.326 318.763 258.326C320.301 258.326 321.353 257.973 321.191 257.621C320.948 257.268 321.191 256.827 321.596 256.827C322.729 256.651 324.024 256.299 324.348 256.034C324.429 255.946 325.077 255.77 325.724 255.593C326.372 255.417 328.233 254.888 329.771 254.36C332.362 253.566 332.443 253.566 331.066 254.712C330.176 255.417 329.933 256.034 330.419 256.034C330.986 256.034 331.39 256.475 331.39 257.004C331.39 257.444 331.066 257.709 330.743 257.444C330.419 257.268 330.095 257.709 330.095 258.59C330.095 259.471 330.581 260.177 331.147 260.177C331.714 260.177 332.2 259.648 332.2 259.119C332.2 258.502 332.443 256.739 332.685 255.241C333.09 253.214 332.928 252.509 332.038 252.509C331.39 252.509 330.662 252.685 330.5 252.949Z" fill="#D5FFEE"/>
    <path d="M143.6 255.858C143.6 256.299 145.543 256.651 147.809 256.827C150.156 256.916 151.856 256.827 151.694 256.651C150.885 255.858 143.6 255.241 143.6 255.858Z" fill="#D5FFEE"/>
    <path d="M187.715 259.736C183.505 263.614 176.706 267.756 171.607 269.607C170.797 269.96 170.312 270.4 170.554 270.753C171.93 272.163 187.876 262.292 192.166 257.356C195.323 253.743 192.895 255.065 187.715 259.736Z" fill="#838383"/>
    <path d="M152.504 256.916C152.504 257.356 152.909 257.797 153.313 257.797C153.799 257.797 154.123 257.356 154.123 256.916C154.123 256.387 153.799 256.034 153.313 256.034C152.909 256.034 152.504 256.387 152.504 256.916Z" fill="white"/>
    <path d="M311.802 258.326C311.559 258.59 310.264 258.943 309.05 259.119C300.551 260.441 299.984 261.146 303.869 265.288C305.65 267.139 307.107 269.166 307.107 269.695C307.107 271.017 303.384 274.543 302.736 273.926C302.493 273.573 302.25 273.749 302.25 274.278C302.25 274.719 300.308 276.217 297.96 277.539C293.751 279.831 291.809 280.536 287.761 281.153C286.709 281.329 284.686 282.563 283.309 283.973C279.667 287.675 275.62 290.672 271.249 293.051C267.202 295.255 267.363 296.048 271.896 296.753C273.272 297.017 273.839 297.017 273.272 296.841C272.706 296.577 272.463 296.136 272.706 295.695C272.949 295.255 272.301 295.078 271.33 295.255C269.549 295.607 269.549 295.607 271.006 294.373C271.896 293.668 273.272 293.051 274.001 293.051C274.81 293.051 275.539 292.522 275.782 291.905C276.025 291.112 276.348 291.112 277.401 291.994C278.453 292.963 278.615 292.875 278.21 291.377C277.886 290.143 278.129 289.526 278.938 289.526C279.586 289.526 281.124 288.38 282.419 286.882C283.633 285.472 285.09 284.502 285.495 284.855C285.981 285.119 286.062 284.943 285.738 284.326C284.847 282.827 287.519 282.122 289.057 283.444C289.785 284.15 290.19 284.238 289.866 283.709C289.299 282.651 291.161 280.36 291.89 281.153C292.132 281.417 293.347 281.065 294.642 280.272C295.937 279.566 297.637 278.95 298.446 278.95C299.255 278.95 299.66 278.509 299.417 278.068C298.932 277.187 300.47 276.834 303.06 277.099C304.112 277.275 304.112 277.187 303.06 276.394C302.008 275.6 302.008 275.424 303.222 275.424C304.679 275.424 307.916 271.458 307.916 269.607C307.916 268.99 306.864 267.316 305.488 265.905C304.193 264.495 303.384 262.997 303.707 262.644C304.031 262.204 303.788 262.204 303.303 262.556C302.736 262.909 302.25 262.732 302.25 262.292C302.25 261.763 302.979 261.322 303.95 261.322C305.002 261.322 305.407 261.675 305.002 262.38C304.679 262.997 305.164 262.821 306.055 261.939C307.107 260.97 308.483 260.529 309.859 260.794C310.992 261.058 311.964 260.794 311.964 260.353C311.964 259.912 312.449 259.56 313.097 259.56C313.744 259.56 314.554 259.119 314.797 258.678C315.282 257.797 312.611 257.444 311.802 258.326Z" fill="#D5FFEE"/>
    <path d="M330.338 261.851C330.095 262.116 330.095 262.997 330.338 263.79C330.662 264.671 330.5 264.936 329.852 264.495C329.286 264.055 329.043 264.319 329.124 265.024C329.286 265.641 328.881 266.082 328.314 265.905C327.667 265.817 327.424 266.082 327.829 266.699C328.233 267.492 327.991 267.58 326.857 267.139C325.481 266.61 325.562 266.699 327.1 268.285C328.072 269.255 328.719 270.753 328.557 271.634C328.395 272.516 328.233 273.926 328.233 274.719C328.152 275.6 327.748 276.305 327.262 276.305C326.776 276.305 326.534 275.777 326.776 275.16C327.019 274.455 326.695 273.926 326.048 273.926C324.915 273.926 325.238 274.895 327.181 277.363C327.829 278.244 328.072 278.95 327.586 278.95C327.181 278.95 326.776 279.566 326.776 280.272C326.776 280.977 327.1 281.594 327.505 281.594C328.072 281.594 328.476 279.919 328.395 277.363C328.314 276.834 328.557 276.305 328.962 276.305C329.286 276.305 329.448 275.072 329.367 273.661C329.286 272.163 329.609 271.017 330.014 271.017C330.5 271.017 330.176 270.224 329.448 269.343C328.638 268.373 328.395 267.404 328.8 267.139C329.286 266.875 329.771 267.139 330.014 267.668C330.176 268.285 330.662 267.316 330.986 265.465C331.552 262.204 331.309 260.794 330.338 261.851Z" fill="#838383"/>
    <path d="M307.512 264.848C307.269 265.377 307.593 265.465 308.24 265.2C309.697 264.583 309.94 263.966 308.807 263.966C308.321 263.966 307.755 264.319 307.512 264.848Z" fill="#838383"/>
    <path d="M324.915 268.726C324.915 268.902 325.562 269.607 326.372 270.224C327.586 271.37 327.667 271.282 326.615 269.872C325.562 268.461 324.915 268.021 324.915 268.726Z" fill="#838383"/>
    <path d="M165.293 271.194C163.108 271.722 161.408 272.339 161.408 272.692C161.408 273.044 163.269 272.956 165.455 272.427C167.721 271.987 169.502 271.194 169.502 270.841C169.502 270.488 169.421 270.224 169.34 270.224C169.178 270.312 167.398 270.753 165.293 271.194Z" fill="#838383"/>
    <path d="M144.005 272.78C144.49 273.573 160.598 273.749 160.598 272.956C160.598 272.604 156.794 272.251 152.099 272.251C147.485 272.163 143.762 272.427 144.005 272.78Z" fill="#838383"/>
    <path d="M316.82 280.712C316.173 281.153 315.363 281.241 314.878 280.977C314.473 280.712 314.392 280.888 314.716 281.417C314.959 281.946 314.635 282.916 313.987 283.533C313.259 284.15 311.964 285.295 311.154 286.177C310.345 286.97 309.373 287.322 309.05 287.058C308.726 286.705 308.726 286.97 309.05 287.587C309.535 288.38 308.726 288.556 305.974 288.38C303.869 288.116 302.493 288.38 302.736 288.821C302.979 289.261 303.95 289.35 304.922 288.997C306.621 288.468 306.621 288.556 305.326 290.055C304.112 291.377 303.788 291.377 302.574 290.319C301.765 289.614 301.36 289.526 301.684 290.055C302.331 291.289 298.851 294.021 296.503 294.197C295.694 294.285 294.965 294.55 294.965 294.814C294.965 295.078 294.156 295.431 293.185 295.519C292.132 295.607 289.947 295.96 288.328 296.224C286.223 296.577 285.252 296.4 285.252 295.695C285.252 295.078 284.766 295.167 283.957 296.048C282.581 297.634 281.529 297.811 280.881 296.753C280.638 296.312 279.667 296.048 278.615 296.136C277.562 296.224 276.267 295.96 275.701 295.431C275.134 294.99 274.487 294.814 274.163 295.167C273.92 295.431 274.082 295.695 274.567 295.695C275.134 295.695 275.539 296.224 275.539 296.841C275.539 297.722 276.672 298.075 279.505 297.987C281.691 297.899 283.795 297.546 284.119 297.194C284.443 296.841 285.171 297.017 285.738 297.546C286.466 298.163 287.761 298.163 290.271 297.37C295.046 295.872 295.127 295.872 297.313 295.343C300.146 294.638 306.298 291.2 306.298 290.319C306.298 289.878 306.54 289.614 306.945 289.614C308.564 289.878 309.697 289.173 313.097 285.648C315.12 283.533 316.82 282.034 316.82 282.299C316.82 282.563 317.225 282.387 317.792 281.77C318.52 280.977 319.249 281.329 321.11 283.444C322.324 284.943 323.62 285.912 323.943 285.56C324.267 285.207 324.024 284.678 323.458 284.502C322.648 284.15 322.648 283.797 323.377 282.827C323.862 282.122 324.672 281.858 325.238 282.211C325.724 282.475 325.481 282.034 324.753 281.065C323.62 279.831 323.134 279.655 322.324 280.536C321.272 281.682 319.734 282.034 320.382 280.888C320.868 279.919 318.196 279.831 316.82 280.712ZM323.296 282.034C322.729 282.827 322.082 283.18 321.92 283.004C321.353 282.387 322.486 280.712 323.458 280.712C323.943 280.712 323.943 281.241 323.296 282.034Z" fill="#838383"/>
    <defs>
        <linearGradient id="paint0_linear_16_2" x1="75" y1="442.5" x2="443" y2="73" gradientUnits="userSpaceOnUse">
            <stop stop-color="#1566AB"/>
            <stop offset="1" stop-color="#3C89C8"/>
        </linearGradient>
    </defs>
</svg>